<?xml version="1.0" encoding="utf-8"?>
<!-- Generator: Adobe Illustrator 16.0.0, SVG Export Plug-In . SVG Version: 6.00 Build 0)  -->
<!DOCTYPE svg PUBLIC "-//W3C//DTD SVG 1.1//EN" "http://www.w3.org/Graphics/SVG/1.1/DTD/svg11.dtd">
<svg version="1.1" id="Layer_1" xmlns="http://www.w3.org/2000/svg" xmlns:xlink="http://www.w3.org/1999/xlink" x="0px" y="0px"
	 width="610px" height="244px" viewBox="0 -28.5 610 244" enable-background="new 0 -28.5 610 244" xml:space="preserve">
<path fill="#7D8F9B" d="M92.782,96.158h14.408v40.611H92.782v-4.514c-3.063,3.854-7.205,5.781-12.429,5.781
	c-2.957,0-5.675-0.541-8.155-1.625c-2.481-1.078-4.644-2.598-6.49-4.553c-1.849-1.949-3.286-4.244-4.315-6.885
	c-1.029-2.637-1.545-5.517-1.545-8.629c0-2.902,0.502-5.662,1.505-8.272c1.002-2.613,2.401-4.894,4.195-6.849
	c1.795-1.953,3.931-3.496,6.413-4.631c2.481-1.134,5.225-1.701,8.233-1.701c5.067,0,9.262,1.769,12.588,5.305V96.158z
	 M74.732,116.346c0,1.319,0.238,2.547,0.712,3.681c0.475,1.136,1.121,2.126,1.94,2.966c0.818,0.85,1.793,1.506,2.929,1.982
	c1.134,0.475,2.361,0.713,3.681,0.713c1.267,0,2.467-0.238,3.602-0.713c1.135-0.477,2.11-1.133,2.929-1.982
	c0.818-0.84,1.476-1.818,1.979-2.928c0.501-1.105,0.752-2.295,0.752-3.562s-0.251-2.465-0.752-3.601
	c-0.503-1.137-1.161-2.123-1.979-2.971c-0.819-0.842-1.794-1.502-2.929-1.978c-1.135-0.476-2.335-0.713-3.602-0.713
	c-1.32,0-2.547,0.237-3.681,0.713c-1.136,0.476-2.111,1.136-2.929,1.978c-0.819,0.848-1.465,1.811-1.94,2.891
	C74.97,113.904,74.732,115.078,74.732,116.346"/>
<path fill="#7D8F9B" d="M156.191,71.063h14.408v65.707h-14.408v-4.514c-3.063,3.854-7.205,5.781-12.429,5.781
	c-2.957,0-5.675-0.555-8.155-1.662c-2.481-1.109-4.644-2.639-6.49-4.592c-1.849-1.953-3.286-4.25-4.315-6.889
	s-1.544-5.486-1.544-8.549c0-2.902,0.487-5.662,1.466-8.272c0.975-2.613,2.36-4.894,4.155-6.849
	c1.793-1.953,3.944-3.496,6.452-4.631c2.505-1.134,5.265-1.701,8.272-1.701c5.067,0,9.262,1.769,12.588,5.305V71.063z
	 M138.141,116.346c0,1.319,0.238,2.547,0.712,3.681c0.475,1.136,1.121,2.126,1.94,2.966c0.818,0.85,1.793,1.506,2.929,1.982
	c1.134,0.475,2.361,0.713,3.681,0.713c1.267,0,2.467-0.238,3.602-0.713c1.135-0.477,2.11-1.133,2.929-1.982
	c0.818-0.84,1.477-1.818,1.979-2.928c0.501-1.105,0.752-2.295,0.752-3.562s-0.251-2.465-0.752-3.601
	c-0.502-1.137-1.161-2.123-1.979-2.971c-0.819-0.842-1.794-1.502-2.929-1.978c-1.135-0.476-2.335-0.713-3.602-0.713
	s-2.468,0.237-3.602,0.713c-1.136,0.476-2.111,1.136-2.929,1.978c-0.819,0.848-1.478,1.811-1.979,2.891
	C138.391,113.904,138.141,115.078,138.141,116.346"/>
<path fill="#7D8F9B" d="M213.667,106.607c-2.64-1.371-5.226-2.059-7.759-2.059c-1.319,0-2.387,0.266-3.205,0.791
	c-0.82,0.53-1.227,1.244-1.227,2.139c0,0.477,0.066,0.859,0.198,1.148c0.131,0.291,0.421,0.567,0.869,0.832
	c0.45,0.264,1.11,0.502,1.981,0.711c0.87,0.211,2.018,0.476,3.443,0.793c3.958,0.791,6.913,2.205,8.867,4.234
	c1.952,2.031,2.929,4.63,2.929,7.797c0,2.375-0.476,4.514-1.426,6.414c-0.95,1.898-2.269,3.496-3.958,4.789
	c-1.69,1.295-3.721,2.297-6.095,3.006c-2.376,0.715-4.988,1.07-7.838,1.07c-5.489,0-10.898-1.555-16.229-4.67l5.226-10.135
	c4.01,2.744,7.809,4.119,11.4,4.119c1.317,0,2.399-0.291,3.245-0.871c0.843-0.58,1.267-1.32,1.267-2.219
	c0-0.525-0.067-0.959-0.198-1.307c-0.132-0.34-0.41-0.658-0.832-0.949c-0.423-0.289-1.042-0.555-1.86-0.791
	c-0.819-0.238-1.888-0.488-3.206-0.752c-4.433-0.896-7.534-2.229-9.302-3.997c-1.769-1.769-2.652-4.208-2.652-7.323
	c0-2.27,0.422-4.314,1.267-6.135c0.844-1.822,2.059-3.365,3.64-4.633c1.584-1.266,3.497-2.241,5.741-2.928
	c2.242-0.684,4.736-1.029,7.481-1.029c4.485,0,8.838,0.871,13.062,2.614L213.667,106.607z"/>
<polygon fill="#7D8F9B" points="398.584,108.111 398.584,136.77 384.255,136.77 384.255,108.111 379.504,108.111 379.504,96.158 
	384.255,96.158 384.255,83.968 398.584,83.968 398.584,96.158 406.737,96.158 406.737,108.111 "/>
<path fill="#7D8F9B" d="M420.034,96.158h14.329v6.649c1.527-2.426,3.4-4.288,5.619-5.581c2.216-1.291,4.803-1.939,7.759-1.939h1.228
	c0.446,0,0.96,0.055,1.543,0.158v13.695c-1.9-0.947-3.957-1.424-6.176-1.424c-3.324,0-5.819,0.99-7.481,2.967
	c-1.662,1.98-2.491,4.871-2.491,8.671v17.415h-14.329V96.158z"/>
<path fill="#7D8F9B" d="M463.889,80.563c0-1.109,0.211-2.15,0.634-3.128c0.422-0.975,1.002-1.831,1.741-2.572
	c0.738-0.737,1.598-1.317,2.573-1.742c0.976-0.422,2.019-0.633,3.127-0.633c1.11,0,2.151,0.211,3.125,0.633
	c0.979,0.425,1.835,1.005,2.576,1.742c0.737,0.741,1.317,1.597,1.742,2.572c0.42,0.978,0.631,2.019,0.631,3.128
	c0,1.109-0.211,2.15-0.631,3.128c-0.425,0.975-1.005,1.835-1.742,2.572c-0.741,0.741-1.597,1.32-2.576,1.743
	c-0.974,0.422-2.015,0.633-3.125,0.633c-1.108,0-2.151-0.211-3.127-0.633c-0.976-0.423-1.835-1.002-2.573-1.743
	c-0.739-0.737-1.319-1.597-1.741-2.572C464.1,82.713,463.889,81.672,463.889,80.563 M479.17,136.77h-14.329V96.158h14.329V136.77z"
	/>
<polygon fill="#7D8F9B" points="512.258,114.764 495.79,96.158 514.473,96.158 521.439,104.55 528.563,96.158 547.247,96.158 
	530.387,114.764 550.73,136.77 531.73,136.77 521.361,124.736 510.909,136.77 491.99,136.77 "/>
<g>
	<g>
		<defs>
			<polygon id="SVGID_1_" points="167.275,208.834 430.96,208.834 299.118,-19.524 			"/>
		</defs>
		<clipPath id="SVGID_2_">
			<use xlink:href="#SVGID_1_"  overflow="visible"/>
		</clipPath>
		<path clip-path="url(#SVGID_2_)" fill="#F92D2D" d="M207.531,86.337h21.26v7.398c5.795-5.559,12.291-8.338,19.5-8.338
			c8.929,0,15.74,3.759,20.434,11.276c4.774-7.596,11.586-11.395,20.435-11.395c2.824,0,5.489,0.411,7.995,1.235
			c2.505,0.821,4.658,2.114,6.458,3.874c1.8,1.764,3.23,4.054,4.288,6.873c1.06,2.818,1.58,6.225,1.58,10.219v39.113h-21.255
			v-29.717c0-3.053-0.22-5.559-0.644-7.518c-0.432-1.955-1.059-3.481-1.879-4.58c-0.821-1.094-1.783-1.84-2.877-2.232
			c-1.103-0.393-2.276-0.586-3.529-0.586c-6.812,0-10.218,4.972-10.218,14.916v29.717h-21.255v-29.717
			c0-3.053-0.203-5.581-0.591-7.575c-0.388-1.999-0.962-3.583-1.703-4.756c-0.741-1.179-1.703-1.978-2.876-2.409
			c-1.174-0.432-2.546-0.648-4.112-0.648c-1.333,0-2.586,0.199-3.759,0.592c-1.176,0.392-2.212,1.154-3.112,2.289
			c-0.903,1.134-1.606,2.699-2.116,4.699c-0.509,1.994-0.763,4.602-0.763,7.809v29.717h-21.26V86.337z"/>
		<path clip-path="url(#SVGID_2_)" fill="#F92D2D" d="M337.424,120.047c0,9.162,4.306,13.742,12.922,13.742
			c4.619,0,8.104-1.879,10.456-5.639h20.554c-4.151,13.783-14.527,20.674-31.129,20.674c-5.091,0-9.746-0.764-13.976-2.289
			c-4.228-1.527-7.85-3.701-10.866-6.521c-3.014-2.818-5.343-6.186-6.989-10.102c-1.641-3.914-2.465-8.299-2.465-13.152
			c0-5.012,0.78-9.533,2.351-13.57c1.566-4.032,3.795-7.456,6.692-10.275c2.899-2.819,6.402-4.994,10.513-6.52
			c4.112-1.527,8.753-2.29,13.919-2.29c5.092,0,9.672,0.763,13.743,2.29c4.072,1.526,7.518,3.741,10.336,6.635
			c2.82,2.898,4.973,6.445,6.459,10.633c1.487,4.19,2.232,8.906,2.232,14.152v2.232H337.424z M362.328,107.711
			c-0.706-2.974-2.157-5.359-4.346-7.164c-2.196-1.799-4.857-2.699-7.99-2.699c-3.286,0-5.969,0.863-8.047,2.585
			c-2.073,1.72-3.388,4.151-3.93,7.278H362.328z"/>
	</g>
	<polygon fill="none" stroke="#F92D2D" stroke-width="6" stroke-miterlimit="10" points="299.117,-17.524 167.275,210.834 
		430.959,210.834 	"/>
</g>
</svg>
